<svg xmlns="http://www.w3.org/2000/svg" viewBox="0 0 900 360">
  <defs>
    <linearGradient id="gg" x1="0" y1="0" x2="1" y2="1">
      <stop stop-color="#0ea5e9" offset="0"/>
      <stop stop-color="#22c55e" offset="1"/>
    </linearGradient>
  </defs>
  <rect width="900" height="360" fill="#0b1020"/>
  <g opacity="0.2" stroke="url(#gg)" fill="none">
    <path d="M0,140 C200,190 300,90 500,140 700,190 800,100 900,160" stroke-width="4"/>
    <path d="M0,200 C220,260 320,170 520,200 720,230 820,170 900,240" stroke-width="3"/>
    <path d="M0,260 C220,300 340,240 520,260 760,300 840,240 900,300" stroke-width="2"/>
  </g>
  <g fill="#e6eaf2" opacity="0.9">
    <text x="40" y="60" font-size="24" font-family="ui-sans-serif, system-ui">Интегрированная модель</text>
    <circle cx="120" cy="200" r="28" fill="url(#gg)"/><text x="100" y="206" font-size="16" fill="#fff">Пласт</text>
    <circle cx="320" cy="200" r="28" fill="url(#gg)"/><text x="296" y="206" font-size="16" fill="#fff">Скв.</text>
    <circle cx="520" cy="200" r="28" fill="url(#gg)"/><text x="504" y="206" font-size="16" fill="#fff">Сеть</text>
    <circle cx="720" cy="200" r="28" fill="url(#gg)"/><text x="684" y="206" font-size="16" fill="#fff">Подгот.</text>
  </g>
</svg>
